<svg xmlns="http://www.w3.org/2000/svg" width="128" height="128" viewBox="0 0 128 128">
  <path fill="#c5c5c5" d="M64 8 113 36v56l-49 28-49-28V36L64 8Zm0 12L26 42v44l38 22 38-22V42L64 20Z"/>
  <path fill="#c5c5c5" d="M64 34a30 30 0 1 0 0 60 30 30 0 0 0 0-60Zm0 10a20 20 0 1 1 0 40 20 20 0 0 1 0-40Z"/>
  <path fill="#c5c5c5" d="M59 20h10v26H59V20Zm0 62h10v26H59V82ZM82 59h26v10H82V59ZM20 59h26v10H20V59Zm48-4 16-16 7 7-16 16-7-7Zm-31 31 16-16 7 7-16 16-7-7Zm38-16 16 16-7 7-16-16 7-7ZM37 46l7-7 16 16-7 7-16-16Z"/>
</svg>
